<?xml version="1.0" standalone="no"?>
<!DOCTYPE svg PUBLIC "-//W3C//DTD SVG 20010904//EN"
 "http://www.w3.org/TR/2001/REC-SVG-20010904/DTD/svg10.dtd">
<svg version="1.0" xmlns="http://www.w3.org/2000/svg"
 width="202.000000pt" height="187.000000pt" viewBox="0 0 202.000000 187.000000"
 preserveAspectRatio="xMidYMid meet">

<g transform="translate(0.000000,187.000000) scale(0.100000,-0.100000)"
fill="#000000" stroke="none">
<path d="M1010 1813 c-65 -178 -62 -173 -100 -178 -19 -3 -107 -29 -195 -58
-139 -45 -173 -52 -257 -55 l-98 -4 -1 -136 c-1 -156 -19 -357 -34 -370 -5 -5
-55 -26 -110 -47 -55 -20 -103 -40 -107 -43 -4 -4 47 -27 113 -51 105 -39 120
-48 125 -70 31 -141 64 -221 130 -314 l34 -47 -25 -50 c-14 -27 -25 -52 -25
-55 0 -2 24 6 54 19 l54 24 52 -43 c74 -60 163 -111 252 -143 60 -21 80 -33
87 -52 6 -14 20 -51 31 -82 19 -52 25 -58 49 -58 25 0 30 7 60 84 l32 85 52
17 c85 27 198 89 265 143 62 51 63 51 92 36 16 -9 41 -20 54 -25 l24 -9 -25
55 -24 54 44 68 c54 81 72 121 101 232 l23 85 79 32 c43 18 96 37 118 43 21 7
35 15 30 20 -5 5 -56 26 -114 48 l-105 40 -13 78 c-7 44 -14 159 -15 256 l-2
178 -31 -6 c-55 -10 -182 15 -334 66 -82 27 -160 50 -173 50 -39 0 -54 21 -97
133 -23 59 -43 107 -45 107 -2 0 -13 -26 -25 -57z m107 -248 c42 -4 86 -11 97
-15 83 -34 299 -93 358 -99 l73 -6 2 -130 c1 -71 7 -166 13 -209 5 -44 10
-106 10 -138 l0 -60 103 7 c66 5 99 4 92 -2 -5 -6 -54 -25 -107 -44 l-96 -34
-17 -70 c-54 -226 -223 -408 -465 -500 -110 -42 -149 -43 -260 -6 -52 18 -126
51 -165 74 -87 52 -198 163 -248 248 -42 71 -82 194 -93 281 l-6 57 -112 3
-111 3 110 41 c131 49 122 28 132 290 l6 181 79 11 c43 7 141 32 216 58 75 25
155 49 177 52 38 7 40 10 71 87 64 156 58 153 62 34 l3 -107 76 -7z"/>
<path d="M1120 1490 c-6 -11 -8 -20 -6 -20 3 0 10 9 16 20 6 11 8 20 6 20 -3
0 -10 -9 -16 -20z"/>
<path d="M1092 1435 c-17 -37 -14 -45 4 -12 9 16 14 31 11 33 -2 2 -9 -7 -15
-21z"/>
<path d="M1313 1379 c-38 -42 -63 -79 -63 -92 1 -19 5 -17 37 18 20 22 54 59
75 83 34 37 42 62 20 62 -4 0 -35 -32 -69 -71z"/>
<path d="M788 1433 c7 -3 16 -2 19 1 4 3 -2 6 -13 5 -11 0 -14 -3 -6 -6z"/>
<path d="M890 1430 c35 -24 54 -31 30 -11 -14 11 -29 21 -35 21 -5 0 -3 -5 5
-10z"/>
<path d="M599 1379 l-24 -20 28 17 c15 9 27 18 27 20 0 8 -8 4 -31 -17z"/>
<path d="M873 1348 c-6 -7 -17 -39 -24 -71 -7 -31 -18 -62 -26 -68 -10 -9 -13
-64 -13 -256 0 -241 0 -246 23 -269 12 -13 28 -24 35 -24 17 0 15 -17 -3 -24
-18 -7 -20 -32 -2 -39 10 -4 10 -6 0 -6 -20 -1 -15 -31 5 -32 13 0 12 -2 -5
-9 -17 -7 -23 -18 -23 -39 0 -47 -37 -124 -56 -117 -9 3 -17 6 -19 6 -2 0 8
20 22 45 37 66 23 75 -26 16 l-43 -51 23 -20 c34 -29 154 -86 224 -106 51 -14
68 -15 118 -5 189 39 370 173 460 339 56 105 77 200 76 351 0 159 -17 132 -23
-37 -3 -66 -11 -138 -20 -165 -22 -70 -67 -167 -77 -167 -5 0 -9 -7 -9 -15 0
-7 -6 -18 -13 -22 -8 -4 -18 -16 -24 -27 -9 -16 -17 -9 -74 57 -35 42 -72 76
-81 76 -10 1 -18 -2 -18 -5 0 -3 32 -42 72 -87 l71 -81 -45 -40 c-25 -23 -59
-49 -76 -59 l-30 -17 -26 56 c-14 31 -26 69 -26 84 0 19 -6 30 -17 33 -17 4
-17 5 0 6 17 1 25 31 8 31 -4 0 -6 11 -4 24 4 17 0 26 -14 29 -16 4 -16 6 5
12 12 4 22 11 22 16 0 13 62 49 72 43 4 -3 8 16 8 41 0 42 -2 46 -20 40 -20
-6 -20 -2 -20 192 0 173 -2 202 -17 223 -10 14 -25 52 -33 85 l-16 60 -155 3
c-117 2 -159 -1 -166 -10z m277 -82 c0 -18 -7 -39 -15 -46 -8 -7 -15 -21 -15
-31 0 -23 1 -23 -43 -4 -36 15 -92 11 -103 -6 -10 -16 -24 -9 -24 11 0 11 -7
23 -15 26 -10 4 -15 20 -15 45 l0 39 115 0 115 0 0 -34z m-232 -232 c2 -155 2
-162 -18 -167 -22 -6 -40 -44 -40 -87 0 -16 -4 -32 -10 -35 -7 -4 -10 71 -10
219 0 244 -2 237 55 233 19 -2 20 -10 23 -163z m299 -69 c1 -209 0 -225 -12
-171 -12 56 -26 76 -52 76 -10 0 -12 39 -11 158 0 86 3 161 5 165 3 4 19 7 36
5 l32 -3 2 -230z m-126 179 c32 -28 39 -68 21 -106 -34 -67 -124 -72 -157 -8
-23 44 -18 69 20 107 30 30 40 35 67 29 17 -3 40 -13 49 -22z m-59 -194 c13 0
36 7 52 15 15 8 30 15 32 15 2 0 4 -25 4 -55 l0 -55 -85 0 -85 0 0 55 0 56 30
-16 c16 -8 39 -15 52 -15z m138 -134 c5 -13 10 -46 12 -73 3 -40 0 -48 -14
-47 -10 0 -79 1 -154 2 l-136 2 7 47 c14 97 8 93 150 93 123 0 126 0 135 -24z
m-67 -173 c-34 -2 -93 -2 -130 0 -37 2 -9 3 62 3 72 0 102 -1 68 -3z m-113
-58 c7 -8 25 -15 41 -15 15 0 34 7 43 15 8 8 30 15 48 14 22 0 27 -3 16 -7
-19 -8 -12 -25 12 -35 8 -3 -43 -5 -115 -5 -71 0 -122 2 -112 5 9 2 17 11 17
18 0 7 -8 16 -17 18 -10 3 -2 5 18 6 22 1 42 -5 49 -14z m-80 -107 c0 -28 -55
-128 -67 -120 -17 10 36 132 58 132 5 0 9 -6 9 -12z m150 -82 c0 -77 -3 -95
-16 -100 -29 -11 -34 4 -34 100 0 94 0 94 25 94 25 0 25 0 25 -94z m140 48
c30 -69 35 -94 18 -94 -7 0 -26 28 -41 63 -31 72 -32 77 -12 77 9 0 24 -20 35
-46z m-230 -49 c0 -47 -2 -85 -5 -85 -4 0 -57 22 -64 27 -6 4 53 143 62 143 4
0 7 -38 7 -85z m171 8 c16 -37 28 -67 26 -68 -15 -7 -59 -25 -62 -25 -3 0 -5
39 -5 87 0 47 3 83 7 80 3 -4 19 -37 34 -74z"/>
<path d="M1167 934 c-16 -16 -6 -35 16 -32 12 2 22 10 22 18 0 16 -26 25 -38
14z"/>
<path d="M981 1114 c-24 -31 -25 -37 -10 -67 16 -30 28 -37 66 -37 56 0 84 69
43 110 -29 29 -74 26 -99 -6z m53 -2 c5 -8 -28 -42 -39 -42 -10 0 -5 26 7 38
14 14 25 15 32 4z"/>
<path d="M1088 803 c7 -3 16 -2 19 1 4 3 -2 6 -13 5 -11 0 -14 -3 -6 -6z"/>
<path d="M1138 763 c7 -3 16 -2 19 1 4 3 -2 6 -13 5 -11 0 -14 -3 -6 -6z"/>
<path d="M938 723 c23 -2 61 -2 85 0 23 2 4 4 -43 4 -47 0 -66 -2 -42 -4z"/>
<path d="M1460 1248 c-19 -23 -65 -75 -102 -116 -44 -48 -68 -82 -68 -98 0
-22 3 -21 38 18 20 24 39 45 42 48 3 3 34 39 70 80 36 41 68 77 73 78 4 2 7
10 7 18 0 25 -24 14 -60 -28z"/>
<path d="M1583 1225 c0 -27 2 -38 4 -22 2 15 2 37 0 50 -2 12 -4 0 -4 -28z"/>
<path d="M541 1214 c0 -11 3 -14 6 -6 3 7 2 16 -1 19 -3 4 -6 -2 -5 -13z"/>
<path d="M511 1194 c0 -11 3 -14 6 -6 3 7 2 16 -1 19 -3 4 -6 -2 -5 -13z"/>
<path d="M660 1182 c0 -18 30 -63 84 -127 l25 -30 1 25 c0 16 -19 47 -55 88
-39 45 -55 58 -55 44z"/>
<path d="M1602 1140 c0 -19 2 -27 5 -17 2 9 2 25 0 35 -3 9 -5 1 -5 -18z"/>
<path d="M716 721 c-27 -31 -71 -80 -97 -109 -30 -33 -46 -58 -42 -68 3 -8 9
-14 13 -12 12 4 190 207 190 216 -1 30 -21 21 -64 -27z"/>
</g>
</svg>
